<svg width="18" height="20" viewBox="0 0 18 20" fill="none" xmlns="http://www.w3.org/2000/svg">
<path d="M14.28 0.699999L9.058 4.774L3.71 0.699999H0.7V10.5H3.71V4.466L9.058 8.638L14.28 4.494V10.5H17.29V0.699999H14.28Z" fill="black"/>
<path d="M8.736 13.788C8.736 12.3 7.536 11.1 6.048 11.1H0.6V19.5H6.048C7.536 19.5 8.736 18.312 8.736 16.824C8.736 16.236 8.52 15.708 8.148 15.288C8.52 14.892 8.736 14.376 8.736 13.788ZM3.18 13.416H5.628C5.856 13.416 6.048 13.608 6.048 13.848C6.048 14.088 5.844 14.28 5.628 14.28H3.18V13.416ZM5.592 17.184H3.18V16.248H5.58C5.856 16.248 6.048 16.5 6.048 16.716C6.048 16.98 5.844 17.184 5.592 17.184ZM17.5298 13.788C17.5298 12.3 16.3298 11.1 14.8417 11.1H9.39375V19.5H14.8417C16.3298 19.5 17.5298 18.312 17.5298 16.824C17.5298 16.236 17.3138 15.708 16.9418 15.288C17.3138 14.892 17.5298 14.376 17.5298 13.788ZM11.9737 13.416H14.4217C14.6498 13.416 14.8417 13.608 14.8417 13.848C14.8417 14.088 14.6378 14.28 14.4217 14.28H11.9737V13.416ZM14.3858 17.184H11.9737V16.248H14.3738C14.6498 16.248 14.8417 16.5 14.8417 16.716C14.8417 16.98 14.6378 17.184 14.3858 17.184Z" fill="black"/>
</svg>
