<svg width="19" height="19" viewBox="0 0 19 19" fill="none" xmlns="http://www.w3.org/2000/svg">
<path d="M12.7578 9.5L17.644 4.61377C18.2437 4.01416 18.2437 3.04199 17.644 2.44189L16.5581 1.35596C15.9585 0.756348 14.9863 0.756348 14.3862 1.35596L9.5 6.24219L4.61377 1.35596C4.01416 0.756348 3.04199 0.756348 2.44189 1.35596L1.35596 2.44189C0.756348 3.0415 0.756348 4.01367 1.35596 4.61377L6.24219 9.5L1.35596 14.3862C0.756348 14.9858 0.756348 15.958 1.35596 16.5581L2.44189 17.644C3.0415 18.2437 4.01416 18.2437 4.61377 17.644L9.5 12.7578L14.3862 17.644C14.9858 18.2437 15.9585 18.2437 16.5581 17.644L17.644 16.5581C18.2437 15.9585 18.2437 14.9863 17.644 14.3862L12.7578 9.5Z" fill="black"/>
</svg>
