<svg width="26" height="27" viewBox="0 0 26 27" fill="none" xmlns="http://www.w3.org/2000/svg">
<path d="M22.089 21.427C24.1522 19.1708 25.1838 16.4898 25.1838 13.3841C25.1838 10.053 23.9989 7.20917 21.6292 4.85248C19.2594 2.50187 16.3977 1.32657 13.0439 1.32657C9.91688 1.32657 7.21761 2.34963 4.94595 4.39575L4.46312 4.85248L3.99867 5.33204V5.3366C1.93549 7.59587 0.9039 10.2784 0.9039 13.3841C0.9039 16.7121 2.09031 19.5529 4.46312 21.9065C6.83288 24.2632 9.69308 25.4416 13.0439 25.4416C16.1708 25.4416 18.8701 24.417 21.1417 22.3678L21.6292 21.9065L22.0844 21.4316L22.089 21.427ZM21.8131 21.1849L21.3671 21.6508L20.8934 22.0983C18.6923 24.0836 16.0757 25.0762 13.0439 25.0762C9.79428 25.0762 7.01988 23.9344 4.72063 21.6508C2.4214 19.3671 1.27178 16.6116 1.27178 13.3841C1.27178 10.3727 2.27118 7.77097 4.26998 5.57867L4.72063 5.11281L5.18967 4.66979C7.39388 2.68456 10.0119 1.69195 13.0439 1.69195C16.2965 1.69195 19.0709 2.83224 21.3671 5.11281C23.6663 7.39643 24.8159 10.1535 24.8159 13.3841C24.8159 16.3954 23.815 18.9957 21.8131 21.1849ZM15.8305 15.4074L15.481 15.8047L15.0763 16.1564C14.4908 16.5918 13.8133 16.8095 13.0439 16.8095C12.0904 16.8095 11.278 16.4746 10.6067 15.8047C9.93221 15.1379 9.59501 14.331 9.59501 13.3841C9.59501 12.6198 9.81421 11.9469 10.2526 11.3653L10.6067 10.9634L11.0067 10.6163L11.0113 10.6117C11.5969 10.1794 12.2743 9.96325 13.0439 9.96325C13.9973 9.96325 14.8097 10.2966 15.481 10.9634C16.1524 11.6302 16.4881 12.4371 16.4881 13.3841C16.4881 14.1483 16.2704 14.8212 15.8351 15.4028L15.8305 15.4074ZM13.2599 17.1703C14.0233 17.1338 14.7023 16.8933 15.2971 16.4487L15.7385 16.0651C15.8795 15.9249 16.0083 15.7788 16.1248 15.6266C16.6123 14.9811 16.856 14.2336 16.856 13.3841C16.856 12.3367 16.4835 11.4445 15.7385 10.7077C14.9967 9.96781 14.0984 9.59781 13.0439 9.59781C12.1885 9.59781 11.4359 9.83989 10.786 10.324L10.3445 10.7077C10.2005 10.8508 10.0717 10.9969 9.95828 11.1462C9.51068 11.7369 9.26848 12.4112 9.23175 13.1694L9.22715 13.3841C9.22715 14.4315 9.59961 15.3252 10.3445 16.0651C11.0895 16.8049 11.9893 17.1749 13.0439 17.1749L13.2599 17.1703Z" fill="#8E6F49"/>
<path d="M13.26 17.1703L13.0439 17.1749C11.9893 17.1749 11.0895 16.8049 10.3446 16.0651C9.59961 15.3252 9.22715 14.4315 9.22715 13.3841L9.23174 13.1694V13.1009C9.23174 12.1905 9.49388 11.3882 10.0181 10.694C10.1377 10.5326 10.2756 10.3758 10.4319 10.2235L10.9056 9.81248C11.6045 9.29184 12.4123 9.03149 13.329 9.03149C14.4633 9.03149 15.4289 9.42884 16.226 10.2235C17.0261 11.0152 17.4262 11.9743 17.4262 13.1009C17.4262 14.0113 17.1641 14.8136 16.6399 15.5079C16.5173 15.6723 16.3793 15.8291 16.226 15.9783C16.0727 16.1336 15.9149 16.2706 15.7523 16.3893C15.0534 16.91 14.2456 17.1703 13.329 17.1703H13.26ZM21.3257 21.6051L20.8935 22.0983L21.3671 21.6508L21.8131 21.1849L21.3257 21.6051C23.0394 19.5224 23.8963 17.0866 23.8963 14.2975C23.8963 11.067 22.7466 8.30989 20.4474 6.02626C18.1512 3.74569 15.3768 2.60541 12.1242 2.60541C9.31608 2.60541 6.86354 3.45644 4.76664 5.15849L5.1897 4.6698L4.72066 5.11282L4.27 5.57868L4.76664 5.15849C3.04988 7.2442 2.1915 9.68158 2.1915 12.4706C2.1915 15.6982 3.34112 18.4537 5.64035 20.7373C7.93961 23.021 10.714 24.1628 13.9635 24.1628C16.7747 24.1628 19.2288 23.3102 21.3257 21.6051Z" fill="#E2BE91"/>
<path d="M21.3257 21.6051C19.2288 23.3102 16.7747 24.1628 13.9635 24.1628C10.7139 24.1628 7.93953 23.021 5.64031 20.7373C3.34107 18.4537 2.19145 15.6982 2.19145 12.4706C2.19145 9.68157 3.04983 7.24418 4.76659 5.15848L4.26996 5.57866C2.27116 7.77097 1.27176 10.3727 1.27176 13.3841C1.27176 16.6116 2.42138 19.3671 4.72061 21.6508C7.01986 23.9344 9.79426 25.0762 13.0439 25.0762C16.0757 25.0762 18.6923 24.0836 20.8934 22.0983L21.3257 21.6051ZM13.26 17.1703H13.3289C14.2456 17.1703 15.0534 16.91 15.7523 16.3893C15.9148 16.2706 16.0727 16.1335 16.226 15.9782C16.3793 15.8291 16.5172 15.6723 16.6399 15.5079C17.1641 14.8136 17.4262 14.0113 17.4262 13.1009C17.4262 11.9743 17.0261 11.0152 16.226 10.2235C15.4289 9.42883 14.4632 9.03148 13.3289 9.03148C12.4123 9.03148 11.6045 9.29184 10.9055 9.81248L10.4319 10.2235C10.2755 10.3758 10.1376 10.5326 10.0181 10.694C9.49379 11.3882 9.23173 12.1905 9.23173 13.1009V13.1694C9.26846 12.4112 9.51066 11.7369 9.95826 11.1462C10.0717 10.9969 10.2005 10.8508 10.3445 10.7077L10.786 10.324C11.4359 9.83989 12.1885 9.59781 13.0439 9.59781C14.0984 9.59781 14.9967 9.96775 15.7385 10.7077C16.4835 11.4445 16.856 12.3367 16.856 13.3841C16.856 14.2336 16.6123 14.9811 16.1248 15.6266C16.0083 15.7788 15.8795 15.9249 15.7385 16.0651L15.2971 16.4487C14.7023 16.8933 14.0233 17.1337 13.26 17.1703Z" fill="#EECDA4"/>
<path d="M21.3257 21.6051L21.8131 21.1849C23.815 18.9957 24.8159 16.3954 24.8159 13.3841C24.8159 10.1536 23.6663 7.39644 21.3671 5.11282C19.0709 2.83225 16.2965 1.69196 13.0439 1.69196C10.0119 1.69196 7.39387 2.68457 5.18966 4.66979L4.7666 5.15849C6.86353 3.45643 9.316 2.6054 12.1241 2.6054C15.3768 2.6054 18.1512 3.74569 20.4474 6.02627C22.7466 8.30989 23.8962 11.067 23.8962 14.2976C23.8962 17.0866 23.0394 19.5224 21.3257 21.6051Z" fill="#D4AF80"/>
<path d="M22.5561 14.0891C22.5561 11.1913 21.534 8.71724 19.4898 6.66688C17.4425 4.62577 14.97 3.60522 12.0722 3.60522C9.61984 3.60213 7.47201 4.33507 5.62882 5.80405C4.17221 7.64723 3.44391 9.79039 3.44391 12.2335C3.44391 15.1282 4.4691 17.5976 6.51949 19.6418C8.5637 21.6922 11.0331 22.7174 13.9278 22.7174C16.3709 22.7205 18.5125 21.9922 20.3526 20.5325C21.8247 18.6893 22.5592 16.5416 22.5561 14.0891ZM16.0385 17.4384C15.2313 18.026 14.3143 18.3445 13.2876 18.394L13.2552 18.3986L13 18.4032C11.5527 18.4032 10.3187 17.8899 9.29817 16.8632C8.27144 15.8426 7.75807 14.6086 7.75807 13.1613L7.76271 12.8876V12.9062L7.76735 12.8737C7.81683 11.847 8.13537 10.93 8.72295 10.1228L8.77864 10.044L8.84818 9.9512C8.9812 9.7873 9.13118 9.62186 9.29817 9.45487L9.30281 9.45023C9.45433 9.3018 9.6121 9.1595 9.776 9.02344L9.87802 8.94456L9.8873 8.93992C10.7842 8.26885 11.8218 7.93021 13 7.92402C14.4474 7.92402 15.6829 8.4343 16.7065 9.45487C17.727 10.4785 18.2373 11.714 18.2373 13.1613C18.2311 14.3396 17.8925 15.3771 17.2214 16.274L17.2168 16.2833L17.1379 16.3853L16.7111 16.8585L16.7065 16.8632L16.2101 17.3131L16.1173 17.3827L16.0385 17.4384Z" fill="#EEEEEE"/>
<path d="M19.9862 20.9779L20.4176 20.5696L20.8166 20.1521V20.1475L20.8444 20.1196C22.6072 18.1652 23.487 15.8457 23.4839 13.1613C23.4839 10.2636 22.4618 7.78948 20.4176 5.73909C18.3703 3.69798 15.8978 2.67742 13 2.67742C10.3126 2.67434 7.99157 3.55417 6.03706 5.31695L6.02314 5.33087L6.01386 5.34014H6.00922L5.59172 5.73909L5.1835 6.17051L5.12783 6.22617L5.10928 6.24473C3.38052 8.19306 2.51614 10.4986 2.51614 13.1613C2.51614 16.056 3.54134 18.5254 5.59172 20.5696C7.63593 22.62 10.1054 23.6452 13 23.6452C15.6627 23.6483 17.9683 22.7824 19.9166 21.0474L19.9862 20.9825V20.9779ZM22.5561 14.0891C22.5592 16.5415 21.8248 18.6893 20.3527 20.5325C18.5126 21.9922 16.371 22.7205 13.9278 22.7174C11.0331 22.7174 8.56367 21.6922 6.5195 19.6418C4.46911 17.5976 3.44392 15.1282 3.44392 12.2335C3.44392 9.79038 4.17222 7.64722 5.62883 5.80403C7.47202 4.33505 9.61981 3.60211 12.0722 3.6052C14.97 3.6052 17.4425 4.62576 19.4898 6.66687C21.534 8.71723 22.5561 11.1913 22.5561 14.0891Z" fill="white"/>
<g clip-path="url(#clip0_9_185)">
<path d="M17.0374 19.3606C17.0774 19.2896 17.0851 19.2094 17.0604 19.12C17.042 19.0366 16.9941 18.9718 16.917 18.9256L15.9405 18.3656C15.8664 18.3224 15.7877 18.3116 15.7044 18.3332C15.6181 18.3579 15.5532 18.4041 15.51 18.472C15.4668 18.5492 15.4591 18.6324 15.4869 18.7219C15.5054 18.8052 15.5517 18.87 15.6258 18.9163L16.5977 19.4763C16.6778 19.5226 16.7581 19.5365 16.8383 19.518C16.9278 19.4902 16.9941 19.4377 17.0374 19.3606ZM19.8188 13.8346C19.8867 13.8963 19.9638 13.9272 20.0503 13.9272C20.1335 13.9272 20.2076 13.8948 20.2724 13.83C20.3372 13.7713 20.368 13.6973 20.3649 13.6078V12.4832C20.3649 12.3968 20.3356 12.3228 20.277 12.2611C20.2122 12.1993 20.1382 12.1669 20.0549 12.1638C19.9685 12.1638 19.8929 12.1978 19.8281 12.2657C19.7664 12.3243 19.734 12.3983 19.7309 12.4878V13.6078C19.7309 13.7004 19.7602 13.776 19.8188 13.8346ZM16.2737 5.17537C16.3539 5.22165 16.4342 5.23554 16.5143 5.21703C16.6038 5.18925 16.6701 5.1368 16.7133 5.05967C16.7535 4.9887 16.7612 4.90848 16.7365 4.81901C16.718 4.7357 16.6701 4.6709 16.593 4.62462L15.6165 4.06462C15.5424 4.02142 15.4637 4.01062 15.3805 4.03222C15.294 4.05691 15.2293 4.10318 15.1861 4.17107C15.1429 4.2482 15.1352 4.33151 15.1629 4.42098C15.1815 4.50429 15.2277 4.56908 15.3018 4.61537L16.2737 5.17537ZM6.28617 17.6204C6.37565 17.5926 6.44199 17.5402 6.48518 17.4631C6.52529 17.3921 6.533 17.3119 6.50832 17.2224C6.48981 17.1391 6.44199 17.0743 6.36485 17.028L5.38831 16.468C5.31426 16.4248 5.23559 16.414 5.15228 16.4356C5.06589 16.4603 5.00109 16.5066 4.95789 16.5744C4.9147 16.6516 4.90699 16.7349 4.93476 16.8244C4.95327 16.9077 4.99955 16.9725 5.0736 17.0188L6.0455 17.5787C6.12573 17.625 6.20595 17.6389 6.28617 17.6204ZM11.988 21.3739C12.0528 21.3152 12.0837 21.2412 12.0806 21.1517V20.027C12.0806 19.9407 12.0513 19.8666 11.9927 19.8049C11.9279 19.7432 11.8538 19.7108 11.7705 19.7077C11.6841 19.7077 11.6086 19.7417 11.5437 19.8095C11.482 19.8682 11.4496 19.9422 11.4465 20.0317V21.1517C11.4465 21.2442 11.4758 21.3199 11.5345 21.3785C11.6024 21.4402 11.6795 21.471 11.7659 21.471C11.8492 21.471 11.9232 21.4386 11.988 21.3739ZM5.37443 8.78994C5.4423 8.85165 5.51944 8.88251 5.60583 8.88251C5.68914 8.88251 5.76319 8.85011 5.82798 8.78532C5.89278 8.72669 5.92364 8.65264 5.92055 8.56316V7.43853C5.92055 7.35214 5.89124 7.27808 5.83261 7.21638C5.76782 7.15467 5.69377 7.12227 5.61046 7.11919C5.52407 7.11919 5.44848 7.15312 5.38369 7.221C5.32198 7.27963 5.28958 7.35368 5.28649 7.44316V8.56316C5.28649 8.65573 5.31581 8.73132 5.37443 8.78994Z" fill="#FFCC00"/>
<path d="M21.7812 15.6164C21.7843 15.527 21.7565 15.4514 21.6978 15.3896C21.6362 15.328 21.559 15.2987 21.4664 15.3017C21.3801 15.2987 21.3044 15.328 21.2396 15.3896L20.4482 16.1857C20.3835 16.2505 20.3511 16.3246 20.3511 16.4078C20.3542 16.4973 20.3866 16.5729 20.4482 16.6346C20.5069 16.6933 20.5809 16.7226 20.6704 16.7226C20.7599 16.7257 20.8354 16.6948 20.8972 16.63L21.6932 15.834C21.7549 15.7722 21.7843 15.6998 21.7812 15.6164ZM19.2033 18.8932C19.2279 18.8098 19.2187 18.7296 19.1755 18.6525L18.6109 17.6806C18.5677 17.6034 18.5044 17.554 18.4211 17.5325C18.3347 17.5078 18.2545 17.5171 18.1805 17.5602C18.1064 17.6034 18.0586 17.6698 18.037 17.7592C18.0123 17.8426 18.0215 17.9228 18.0647 17.9999L18.6294 18.9718C18.6726 19.049 18.7358 19.0983 18.8191 19.12C18.9055 19.1416 18.9858 19.1308 19.0598 19.0875C19.1339 19.0443 19.1817 18.9795 19.2033 18.8932ZM7.5265 20.1381C7.61289 20.1597 7.69311 20.1489 7.76717 20.1057C7.84121 20.0625 7.88903 19.9977 7.91063 19.9114C7.93532 19.828 7.92606 19.7478 7.88287 19.6707L7.31824 18.6988C7.27504 18.6216 7.21179 18.5722 7.12848 18.5507C7.04208 18.526 6.96187 18.5353 6.88782 18.5784C6.81377 18.6216 6.76594 18.688 6.74434 18.7774C6.71966 18.8608 6.72892 18.941 6.77211 19.0181L7.33675 19.99C7.37994 20.0672 7.44319 20.1165 7.5265 20.1381ZM14.6214 22.3272C14.68 22.3858 14.7541 22.4151 14.8436 22.4151C14.9331 22.4182 15.0086 22.3874 15.0703 22.3226L15.8664 21.5266C15.9281 21.4648 15.9574 21.3923 15.9543 21.309C15.9574 21.2195 15.9297 21.144 15.871 21.0823C15.8093 21.0205 15.7322 20.9912 15.6396 20.9943C15.5532 20.9912 15.4776 21.0205 15.4128 21.0823L14.6214 21.8783C14.5567 21.9431 14.5242 22.0171 14.5242 22.1005C14.5273 22.1899 14.5597 22.2655 14.6214 22.3272ZM6.01773 13.5384L5.22632 14.3344C5.16152 14.3992 5.12913 14.4733 5.12913 14.5566C5.13222 14.6461 5.16461 14.7217 5.22632 14.7834C5.28494 14.842 5.35899 14.8713 5.44846 14.8713C5.53794 14.8744 5.61353 14.8435 5.67524 14.7787L6.47129 13.9827C6.53299 13.921 6.5623 13.8485 6.55922 13.7652C6.5623 13.6757 6.53454 13.6001 6.47592 13.5384C6.41421 13.4767 6.33707 13.4474 6.24451 13.4505C6.15812 13.4474 6.08252 13.4767 6.01773 13.5384ZM8.78998 7.01736C8.70359 7.01428 8.628 7.04358 8.5632 7.10529L7.77179 7.90134C7.707 7.96613 7.6746 8.04018 7.6746 8.12349C7.67769 8.21296 7.71008 8.28855 7.77179 8.35026C7.83041 8.40889 7.90446 8.4382 7.99394 8.4382C8.08341 8.44128 8.15901 8.41043 8.22072 8.34564L9.01676 7.54959C9.07847 7.48789 9.10777 7.41538 9.10469 7.33207C9.10777 7.2426 9.08001 7.167 9.02139 7.10529C8.95968 7.04358 8.88254 7.01428 8.78998 7.01736ZM4.99491 11.4419C5.01959 11.3585 5.01034 11.2784 4.96714 11.2012L4.40251 10.2293C4.35931 10.1521 4.29606 10.1028 4.21275 10.0812C4.12636 10.0565 4.04615 10.0658 3.97209 10.1089C3.89804 10.1521 3.85022 10.2185 3.82862 10.3079C3.80393 10.3913 3.81319 10.4715 3.85639 10.5486L4.42102 11.5205C4.46422 11.5977 4.52747 11.647 4.61077 11.6687C4.69717 11.6903 4.77739 11.6795 4.85144 11.6362C4.92549 11.593 4.97331 11.5282 4.99491 11.4419ZM12.9923 6.91091C13.0818 6.914 13.1574 6.88315 13.2191 6.81835L14.0151 6.02231C14.0768 5.9606 14.1062 5.8881 14.1031 5.80479C14.1062 5.71531 14.0784 5.63972 14.0197 5.57801C13.9581 5.5163 13.8809 5.48699 13.7884 5.49008C13.702 5.48699 13.6264 5.5163 13.5616 5.57801L12.7702 6.37405C12.7054 6.43884 12.673 6.5129 12.673 6.5962C12.6761 6.68568 12.7085 6.76127 12.7702 6.82298C12.8288 6.8816 12.9029 6.91091 12.9923 6.91091ZM11.7797 4.43949C11.8229 4.51663 11.8862 4.566 11.9695 4.58759C12.0559 4.60919 12.1361 4.59839 12.2101 4.55519C12.2842 4.512 12.3321 4.4472 12.3537 4.36081C12.3784 4.27751 12.3691 4.19729 12.3259 4.12015L11.7613 3.14824C11.7181 3.07111 11.6548 3.02174 11.5715 3.00014C11.4851 2.97546 11.4049 2.98471 11.3308 3.02791C11.2568 3.07111 11.2089 3.13744 11.1873 3.22692C11.1627 3.31023 11.172 3.39045 11.2151 3.46758L11.7797 4.43949Z" fill="#FF6600"/>
<path d="M18.0647 7.9291L19.0366 7.36909C19.1169 7.31973 19.1678 7.25647 19.1894 7.17934C19.2141 7.08987 19.2033 7.00655 19.157 6.92942L19.0136 6.80446L18.958 6.78595C18.8778 6.76127 18.7991 6.77052 18.722 6.81371L17.7454 7.38298C17.6714 7.42617 17.6235 7.48788 17.602 7.5681C17.5804 7.65449 17.5881 7.73318 17.6251 7.80414C17.6683 7.88127 17.7362 7.93064 17.8287 7.95224L18.0555 7.93372L18.0647 7.9291ZM20.8185 10.2339C20.9111 10.2524 20.9913 10.2432 21.0591 10.2061C21.1425 10.1598 21.1949 10.092 21.2165 10.0025C21.2289 9.94077 21.2243 9.87757 21.2027 9.81275L21.1749 9.76183C21.1348 9.68782 21.073 9.63998 20.9898 9.61837L19.8975 9.32679C19.8142 9.30519 19.7371 9.316 19.6661 9.35919C19.589 9.40548 19.5381 9.46566 19.5134 9.53967C19.4887 9.62609 19.501 9.70936 19.5504 9.78961C19.5905 9.86059 19.6491 9.90991 19.7263 9.93769H19.7355L20.8185 10.2339ZM9.57217 19.0875L9.58137 19.0829L10.5533 18.5229C10.6335 18.4735 10.6844 18.4103 10.706 18.3332C10.7307 18.2437 10.7199 18.1603 10.6736 18.0832L10.5302 17.9582L10.4746 17.9397C10.3944 17.9151 10.3157 17.9244 10.2386 17.9675L9.26205 18.5367C9.188 18.58 9.14018 18.6417 9.11858 18.7219C9.09699 18.8083 9.1047 18.887 9.14172 18.9579C9.18492 19.0351 9.25279 19.0845 9.34539 19.1061L9.57217 19.0875ZM8.43825 5.12445H8.4475L9.53051 5.42065C9.62303 5.43916 9.70328 5.4299 9.77112 5.39288C9.85445 5.3466 9.90692 5.27872 9.92852 5.18924C9.94087 5.12753 9.93624 5.06428 9.91464 4.99948L9.88686 4.94858C9.84673 4.87453 9.785 4.8267 9.70174 4.80511L8.60949 4.51353C8.52618 4.49193 8.44905 4.50273 8.37808 4.54593C8.30094 4.59221 8.25003 4.65238 8.22535 4.72643C8.20067 4.81282 8.21301 4.89612 8.26238 4.97634C8.30249 5.04731 8.36111 5.09667 8.43825 5.12445ZM6.47129 11.0346L6.48055 11.03L7.45245 10.47C7.53267 10.4206 7.58359 10.3573 7.60518 10.2802C7.62987 10.1907 7.61907 10.1074 7.57278 10.0303C7.53885 9.97472 7.49102 9.93306 7.42931 9.90528L7.37378 9.88683C7.29356 9.86214 7.21488 9.8714 7.13774 9.91454L6.1612 10.4839C6.08715 10.527 6.03933 10.5887 6.01774 10.669C5.99614 10.7553 6.00385 10.834 6.04088 10.905C6.08407 10.9821 6.15195 11.0315 6.24452 11.0531L6.47129 11.0346Z" fill="#FFCCFF"/>
</g>
<path d="M17.78 4.7L12.558 8.774L7.21 4.7H4.2V14.5H7.21V8.466L12.558 12.638L17.78 8.494V14.5H20.79V4.7H17.78Z" fill="black"/>
<path d="M18.78 3.7L13.558 7.774L8.21 3.7H5.2V13.5H8.21V7.466L13.558 11.638L18.78 7.494V13.5H21.79V3.7H18.78Z" fill="#FF4D00"/>
<path d="M12.236 17.788C12.236 16.3 11.036 15.1 9.548 15.1H4.1V23.5H9.548C11.036 23.5 12.236 22.312 12.236 20.824C12.236 20.236 12.02 19.708 11.648 19.288C12.02 18.892 12.236 18.376 12.236 17.788ZM6.68 17.416H9.128C9.356 17.416 9.548 17.608 9.548 17.848C9.548 18.088 9.344 18.28 9.128 18.28H6.68V17.416ZM9.092 21.184H6.68V20.248H9.08C9.356 20.248 9.548 20.5 9.548 20.716C9.548 20.98 9.344 21.184 9.092 21.184ZM21.5698 17.788C21.5698 16.3 20.3698 15.1 18.8817 15.1H13.4337V23.5H18.8817C20.3698 23.5 21.5698 22.312 21.5698 20.824C21.5698 20.236 21.3538 19.708 20.9818 19.288C21.3538 18.892 21.5698 18.376 21.5698 17.788ZM16.0137 17.416H18.4617C18.6898 17.416 18.8817 17.608 18.8817 17.848C18.8817 18.088 18.6777 18.28 18.4617 18.28H16.0137V17.416ZM18.4258 21.184H16.0137V20.248H18.4138C18.6898 20.248 18.8817 20.5 18.8817 20.716C18.8817 20.98 18.6777 21.184 18.4258 21.184Z" fill="black"/>
<path d="M13.236 16.788C13.236 15.3 12.036 14.1 10.548 14.1H5.1V22.5H10.548C12.036 22.5 13.236 21.312 13.236 19.824C13.236 19.236 13.02 18.708 12.648 18.288C13.02 17.892 13.236 17.376 13.236 16.788ZM7.68 16.416H10.128C10.356 16.416 10.548 16.608 10.548 16.848C10.548 17.088 10.344 17.28 10.128 17.28H7.68V16.416ZM10.092 20.184H7.68V19.248H10.08C10.356 19.248 10.548 19.5 10.548 19.716C10.548 19.98 10.344 20.184 10.092 20.184ZM22.5698 16.788C22.5698 15.3 21.3698 14.1 19.8817 14.1H14.4337V22.5H19.8817C21.3698 22.5 22.5698 21.312 22.5698 19.824C22.5698 19.236 22.3538 18.708 21.9818 18.288C22.3538 17.892 22.5698 17.376 22.5698 16.788ZM17.0137 16.416H19.4617C19.6898 16.416 19.8817 16.608 19.8817 16.848C19.8817 17.088 19.6777 17.28 19.4617 17.28H17.0137V16.416ZM19.4258 20.184H17.0137V19.248H19.4138C19.6898 19.248 19.8817 19.5 19.8817 19.716C19.8817 19.98 19.6777 20.184 19.4258 20.184Z" fill="#FF4D00"/>
<defs>
<clipPath id="clip0_9_185">
<rect width="20.129" height="20.129" fill="white" transform="translate(2.51614 2.67741)"/>
</clipPath>
</defs>
</svg>
